<svg width="251" height="55" viewBox="0 0 251 55" fill="none" xmlns="http://www.w3.org/2000/svg">
<g clip-path="url(#clip0_247_20228)">
<path d="M7.33 12.9001H0V8.62012H19.86V12.9001H12.55V32.7601H7.33V12.9001Z" fill="#BF5700"/>
<path d="M39.7 22.3401H28.16V28.4701H40.89L40.27 32.7501H23.09V8.62012H40.2V12.9001H28.15V18.0701H39.69V22.3501L39.7 22.3401Z" fill="#BF5700"/>
<path d="M59.18 32.7501L54.01 24.2501H53.98L48.7 32.7501H43.07L51.1 20.6001L43.3 8.62012H49.36L54.23 16.6201H54.27L59.32 8.62012H64.85L57.08 20.1201L65.22 32.7501H59.19H59.18Z" fill="#BF5700"/>
<path d="M74.45 27.1801L72.57 32.7501H67.44L75.63 8.62012H82.18L90.73 32.7501H85.24L83.26 27.1801H74.44H74.45ZM82.14 22.9001C80.43 17.8101 79.33 14.5501 78.75 12.3801H78.71C78.12 14.7601 76.91 18.5501 75.54 22.9001H82.14Z" fill="#BF5700"/>
<path d="M97.75 25.68C98.3 28.1 100.04 29.17 102.83 29.17C105.62 29.17 106.81 28.07 106.81 26.3C106.81 24.34 105.65 23.48 101.52 22.52C94.95 20.98 93.33 18.59 93.33 15.33C93.33 11.12 96.48 8.27002 102.19 8.27002C108.6 8.27002 111.15 11.71 111.5 15.24H106.24C105.99 13.75 105.17 12.14 102.06 12.14C99.94 12.14 98.66 13.02 98.66 14.73C98.66 16.44 99.68 17.09 103.58 17.99C110.6 19.64 112.14 22.25 112.14 25.66C112.14 30.07 108.81 33.09 102.43 33.09C96.05 33.09 93.08 30.07 92.5 25.67H97.76L97.75 25.68Z" fill="#BF5700"/>
<path d="M174.09 31.97V26.65H163.38V22.16L173.27 8.29004H178.88V22.48H181.73L181.26 26.65H178.88V31.97H174.1H174.09ZM174.09 18.26C174.09 15.69 174.09 14.26 174.19 12.77C173.25 14.75 170.17 19.26 167.94 22.47H174.09V18.25V18.26Z" fill="#BF5700"/>
<path d="M204.65 19.9801C204.65 26.4901 202.58 32.4001 195.55 32.4001C188.52 32.4001 186.45 26.6901 186.45 20.1301C186.45 13.5701 188.83 7.86011 195.66 7.86011C202.49 7.86011 204.65 13.2601 204.65 19.9901V19.9801ZM191.76 20.0701C191.76 24.4201 192.26 28.3001 195.61 28.3001C198.96 28.3001 199.31 24.6801 199.31 20.0101C199.31 15.3401 198.75 11.9601 195.66 11.9601C192.57 11.9601 191.76 14.9401 191.76 20.0701Z" fill="#BF5700"/>
<path d="M227.95 19.9801C227.95 26.4901 225.88 32.4001 218.85 32.4001C211.82 32.4001 209.75 26.6901 209.75 20.1301C209.75 13.5701 212.13 7.86011 218.96 7.86011C225.79 7.86011 227.95 13.2601 227.95 19.9901V19.9801ZM215.06 20.0701C215.06 24.4201 215.56 28.3001 218.91 28.3001C222.26 28.3001 222.61 24.6801 222.61 20.0101C222.61 15.3401 222.05 11.9601 218.96 11.9601C215.87 11.9601 215.06 14.9401 215.06 20.0701Z" fill="#BF5700"/>
<path d="M250.25 19.9801C250.25 26.4901 248.18 32.4001 241.15 32.4001C234.12 32.4001 232.05 26.6901 232.05 20.1301C232.05 13.5701 234.43 7.86011 241.26 7.86011C248.09 7.86011 250.25 13.2601 250.25 19.9901V19.9801ZM237.36 20.0701C237.36 24.4201 237.86 28.3001 241.21 28.3001C244.56 28.3001 244.91 24.6801 244.91 20.0101C244.91 15.3401 244.35 11.9601 241.26 11.9601C238.17 11.9601 237.36 14.9401 237.36 20.0701Z" fill="#BF5700"/>
<path d="M23.936 43.504H29.636V45.232H25.808V46.96H29.348V48.688H25.808V52H23.936V43.504ZM31.7333 43.504H33.6053V52H31.7333V43.504ZM43.7801 51.4C43.2281 51.688 42.6521 51.896 42.0521 52.024C41.4521 52.152 40.8401 52.216 40.2161 52.216C39.5521 52.216 38.9401 52.112 38.3801 51.904C37.8201 51.696 37.3361 51.4 36.9281 51.016C36.5201 50.624 36.2001 50.152 35.9681 49.6C35.7441 49.048 35.6321 48.432 35.6321 47.752C35.6321 47.072 35.7441 46.456 35.9681 45.904C36.2001 45.352 36.5201 44.884 36.9281 44.5C37.3361 44.108 37.8201 43.808 38.3801 43.6C38.9401 43.392 39.5521 43.288 40.2161 43.288C40.8961 43.288 41.5201 43.372 42.0881 43.54C42.6641 43.7 43.1681 43.98 43.6001 44.38L42.2801 45.82C42.0241 45.556 41.7361 45.356 41.4161 45.22C41.0961 45.084 40.6961 45.016 40.2161 45.016C39.8161 45.016 39.4521 45.084 39.1241 45.22C38.8041 45.356 38.5281 45.548 38.2961 45.796C38.0641 46.036 37.8841 46.324 37.7561 46.66C37.6361 46.996 37.5761 47.36 37.5761 47.752C37.5761 48.152 37.6361 48.52 37.7561 48.856C37.8841 49.184 38.0641 49.472 38.2961 49.72C38.5281 49.96 38.8041 50.148 39.1241 50.284C39.4521 50.42 39.8161 50.488 40.2161 50.488C40.6241 50.488 40.9761 50.444 41.2721 50.356C41.5681 50.26 41.8041 50.164 41.9801 50.068V48.688H40.4561V46.96H43.7801V51.4ZM46.2079 43.504H48.0799V46.672H51.7159V43.504H53.5879V52H51.7159V48.328H48.0799V52H46.2079V43.504ZM57.7374 45.16H55.3134V43.504H62.0334V45.16H59.6094V52H57.7374V45.16ZM63.74 43.504H65.612V52H63.74V43.504ZM68.0948 43.504H70.6388L74.2508 49.408H74.2748V43.504H76.1468V52H73.6988L69.9908 45.952H69.9668V52H68.0948V43.504ZM86.3519 51.4C85.7999 51.688 85.2239 51.896 84.6239 52.024C84.0239 52.152 83.4119 52.216 82.7879 52.216C82.1239 52.216 81.5119 52.112 80.9519 51.904C80.3919 51.696 79.9079 51.4 79.4999 51.016C79.0919 50.624 78.7719 50.152 78.5399 49.6C78.3159 49.048 78.2039 48.432 78.2039 47.752C78.2039 47.072 78.3159 46.456 78.5399 45.904C78.7719 45.352 79.0919 44.884 79.4999 44.5C79.9079 44.108 80.3919 43.808 80.9519 43.6C81.5119 43.392 82.1239 43.288 82.7879 43.288C83.4679 43.288 84.0919 43.372 84.6599 43.54C85.2359 43.7 85.7399 43.98 86.1719 44.38L84.8519 45.82C84.5959 45.556 84.3079 45.356 83.9879 45.22C83.6679 45.084 83.2679 45.016 82.7879 45.016C82.3879 45.016 82.0239 45.084 81.6959 45.22C81.3759 45.356 81.0999 45.548 80.8679 45.796C80.6359 46.036 80.4559 46.324 80.3279 46.66C80.2079 46.996 80.1479 47.36 80.1479 47.752C80.1479 48.152 80.2079 48.52 80.3279 48.856C80.4559 49.184 80.6359 49.472 80.8679 49.72C81.0999 49.96 81.3759 50.148 81.6959 50.284C82.0239 50.42 82.3879 50.488 82.7879 50.488C83.1959 50.488 83.5479 50.444 83.8439 50.356C84.1399 50.26 84.3759 50.164 84.5519 50.068V48.688H83.0279V46.96H86.3519V51.4ZM98.6666 45.712C98.4826 45.488 98.2546 45.316 97.9826 45.196C97.7186 45.076 97.4106 45.016 97.0586 45.016C96.7066 45.016 96.3786 45.084 96.0746 45.22C95.7786 45.356 95.5186 45.548 95.2946 45.796C95.0786 46.036 94.9066 46.324 94.7786 46.66C94.6586 46.996 94.5986 47.36 94.5986 47.752C94.5986 48.152 94.6586 48.52 94.7786 48.856C94.9066 49.184 95.0786 49.472 95.2946 49.72C95.5106 49.96 95.7626 50.148 96.0506 50.284C96.3466 50.42 96.6626 50.488 96.9986 50.488C97.3826 50.488 97.7226 50.408 98.0186 50.248C98.3146 50.088 98.5586 49.864 98.7506 49.576L100.311 50.74C99.9506 51.244 99.4946 51.616 98.9426 51.856C98.3906 52.096 97.8226 52.216 97.2386 52.216C96.5746 52.216 95.9626 52.112 95.4026 51.904C94.8426 51.696 94.3586 51.4 93.9506 51.016C93.5426 50.624 93.2226 50.152 92.9906 49.6C92.7666 49.048 92.6546 48.432 92.6546 47.752C92.6546 47.072 92.7666 46.456 92.9906 45.904C93.2226 45.352 93.5426 44.884 93.9506 44.5C94.3586 44.108 94.8426 43.808 95.4026 43.6C95.9626 43.392 96.5746 43.288 97.2386 43.288C97.4786 43.288 97.7266 43.312 97.9826 43.36C98.2466 43.4 98.5026 43.468 98.7506 43.564C99.0066 43.66 99.2506 43.788 99.4826 43.948C99.7146 44.108 99.9226 44.304 100.107 44.536L98.6666 45.712ZM104.901 43.504H106.449L110.145 52H108.033L107.301 50.2H104.001L103.293 52H101.229L104.901 43.504ZM105.621 45.976L104.589 48.616H106.665L105.621 45.976ZM111.78 43.504H114.324L117.936 49.408H117.96V43.504H119.832V52H117.384L113.676 45.952H113.652V52H111.78V43.504ZM127.901 45.712C127.717 45.488 127.489 45.316 127.217 45.196C126.953 45.076 126.645 45.016 126.293 45.016C125.941 45.016 125.613 45.084 125.309 45.22C125.013 45.356 124.753 45.548 124.529 45.796C124.313 46.036 124.141 46.324 124.013 46.66C123.893 46.996 123.833 47.36 123.833 47.752C123.833 48.152 123.893 48.52 124.013 48.856C124.141 49.184 124.313 49.472 124.529 49.72C124.745 49.96 124.997 50.148 125.285 50.284C125.581 50.42 125.897 50.488 126.233 50.488C126.617 50.488 126.957 50.408 127.253 50.248C127.549 50.088 127.793 49.864 127.985 49.576L129.545 50.74C129.185 51.244 128.729 51.616 128.177 51.856C127.625 52.096 127.057 52.216 126.473 52.216C125.809 52.216 125.197 52.112 124.637 51.904C124.077 51.696 123.593 51.4 123.185 51.016C122.777 50.624 122.457 50.152 122.225 49.6C122.001 49.048 121.889 48.432 121.889 47.752C121.889 47.072 122.001 46.456 122.225 45.904C122.457 45.352 122.777 44.884 123.185 44.5C123.593 44.108 124.077 43.808 124.637 43.6C125.197 43.392 125.809 43.288 126.473 43.288C126.713 43.288 126.961 43.312 127.217 43.36C127.481 43.4 127.737 43.468 127.985 43.564C128.241 43.66 128.485 43.788 128.717 43.948C128.949 44.108 129.157 44.304 129.341 44.536L127.901 45.712ZM131.412 43.504H137.184V45.232H133.284V46.816H136.968V48.544H133.284V50.272H137.4V52H131.412V43.504ZM139.679 43.504H142.967C143.399 43.504 143.807 43.548 144.191 43.636C144.583 43.716 144.923 43.856 145.211 44.056C145.507 44.248 145.739 44.512 145.907 44.848C146.083 45.176 146.171 45.588 146.171 46.084C146.171 46.684 146.015 47.196 145.703 47.62C145.391 48.036 144.935 48.3 144.335 48.412L146.495 52H144.251L142.475 48.604H141.551V52H139.679V43.504ZM141.551 47.02H142.655C142.823 47.02 142.999 47.016 143.183 47.008C143.375 46.992 143.547 46.956 143.699 46.9C143.851 46.836 143.975 46.74 144.071 46.612C144.175 46.484 144.227 46.304 144.227 46.072C144.227 45.856 144.183 45.684 144.095 45.556C144.007 45.428 143.895 45.332 143.759 45.268C143.623 45.196 143.467 45.148 143.291 45.124C143.115 45.1 142.943 45.088 142.775 45.088H141.551V47.02ZM152.643 43.504H158.415V45.232H154.515V46.816H158.199V48.544H154.515V50.272H158.631V52H152.643V43.504ZM160.069 43.504H162.205L164.305 49.072H164.329L166.465 43.504H168.469L164.965 52H163.465L160.069 43.504ZM170.21 43.504H175.982V45.232H172.082V46.816H175.766V48.544H172.082V50.272H176.198V52H170.21V43.504ZM178.477 43.504H181.765C182.197 43.504 182.605 43.548 182.989 43.636C183.381 43.716 183.721 43.856 184.009 44.056C184.305 44.248 184.537 44.512 184.705 44.848C184.881 45.176 184.969 45.588 184.969 46.084C184.969 46.684 184.813 47.196 184.501 47.62C184.189 48.036 183.733 48.3 183.133 48.412L185.293 52H183.049L181.273 48.604H180.349V52H178.477V43.504ZM180.349 47.02H181.453C181.621 47.02 181.797 47.016 181.981 47.008C182.173 46.992 182.345 46.956 182.497 46.9C182.649 46.836 182.773 46.74 182.869 46.612C182.973 46.484 183.025 46.304 183.025 46.072C183.025 45.856 182.981 45.684 182.893 45.556C182.805 45.428 182.693 45.332 182.557 45.268C182.421 45.196 182.265 45.148 182.089 45.124C181.913 45.1 181.741 45.088 181.573 45.088H180.349V47.02ZM188.681 48.376L185.489 43.504H187.817L189.617 46.684L191.525 43.504H193.745L190.553 48.376V52H188.681V48.376ZM199.485 43.504H202.317L204.273 49.048H204.297L206.265 43.504H209.085V52H207.213V45.484H207.189L204.957 52H203.529L201.381 45.484H201.357V52H199.485V43.504ZM211.573 43.504H213.445V52H211.573V43.504ZM216 43.504H217.872V50.272H221.34V52H216V43.504ZM223.225 43.504H228.997V45.232H225.097V46.816H228.781V48.544H225.097V50.272H229.213V52H223.225V43.504Z" fill="white"/>
<path d="M141.54 1.72008C151.38 5.79008 148.87 7.78008 151.95 8.21008C155.03 8.64008 155.52 4.76008 151.77 1.48008C148.27 -1.58992 139.63 0.930077 141.54 1.72008Z" fill="#BF5700"/>
<path d="M153.99 15.6001C149.84 12.7601 141.68 3.8201 136.69 7.7101C135.23 9.0801 134.34 10.9501 134.31 13.1801C134.27 14.4701 134.51 15.8801 135.02 17.4801L134.86 17.6401C129.1 15.5501 128.3 6.1801 134.01 3.3401C142.05 -0.379903 151.73 8.8201 153.99 15.6001Z" fill="#BF5700"/>
<path d="M136.47 13.8101C140.93 13.8501 144.16 18.7001 140.92 22.4901C138.6 25.2601 134.98 25.8201 131.8 26.3501C129.77 26.6701 127.77 26.9401 125.74 26.9501C129.11 25.4101 133.14 23.8801 135.9 21.3501C139.44 18.6001 137.9 17.5301 136.32 14.0301L136.46 13.8101H136.47Z" fill="#BF5700"/>
<path d="M249.21 36.1201V39.1201H150.23L147.95 39.1801C147.95 39.1801 149.47 38.4001 149.47 38.3001C150.56 37.5501 154.16 34.9001 155.14 32.2301C156.93 27.3401 155.27 22.2201 151.44 20.8201C150.77 20.5801 150.09 20.4601 149.4 20.4601C146.11 20.4601 142.73 23.1001 141.25 27.1501C140.05 30.4401 140.4 33.8301 141.93 36.1201C141.95 36.1601 141.98 36.1901 142 36.2301C142 36.2501 142.02 36.2601 142.03 36.2701C142.6 37.0801 143.24 37.9701 144.09 38.4301C144.09 38.4701 145.14 39.1201 145.2 39.1201H127.78L125.5 39.1801C125.5 39.1801 127.02 38.4001 127.02 38.3001C128.11 37.5501 131.71 34.9001 132.69 32.2301C134.48 27.3401 132.82 22.2201 128.99 20.8201C128.32 20.5801 127.64 20.4601 126.95 20.4601C123.66 20.4601 120.28 23.1001 118.8 27.1501C117.6 30.4401 117.95 33.8301 119.48 36.1201C119.5 36.1601 119.53 36.1901 119.55 36.2301C119.56 36.2501 119.57 36.2601 119.58 36.2701C120.15 37.0801 120.78 37.9701 121.63 38.4301C121.63 38.4701 122.68 39.1201 122.75 39.1201H5.29999V36.1201H117.21C115.88 33.4101 115.67 29.8801 116.92 26.4601C119.09 20.5301 124.81 17.1601 129.67 18.9401C134.54 20.7201 136.73 26.9901 134.56 32.9201C134.13 34.0901 133.56 35.1701 132.87 36.1201H139.66C138.33 33.4101 138.12 29.8801 139.37 26.4601C141.54 20.5301 147.26 17.1601 152.12 18.9401C156.99 20.7201 159.18 26.9901 157.01 32.9201C156.58 34.0901 156.01 35.1701 155.32 36.1201H249.21Z" fill="#BF5700"/>
<path d="M119.55 36.2301C119.55 36.2301 119.5 36.1601 119.48 36.1201H119.49C119.49 36.1201 119.53 36.2001 119.55 36.2301Z" fill="#BF5700"/>
</g>
<defs>
<clipPath id="clip0_247_20228">
<rect width="250.25" height="54.33" fill="white"/>
</clipPath>
</defs>
</svg>
